<?xml version="1.0" encoding="iso-8859-1"?>
<svg version="1.1" id="Capa_1" xmlns="http://www.w3.org/2000/svg" xmlns:xlink="http://www.w3.org/1999/xlink" x="0px" y="0px"
	 viewBox="0 0 512 512" style="enable-background:new 0 0 512 512;" xml:space="preserve">
<g>
	<g>
		<path d="M448,0H64C46.327,0,32,14.327,32,32v384c-0.002,4.365,2.656,8.29,6.709,9.909l213.333,85.333
			c1.258,0.504,2.602,0.761,3.957,0.757c1.355,0.004,2.699-0.253,3.957-0.757l213.333-85.333c4.053-1.619,6.711-5.545,6.709-9.909
			V32C480,14.327,465.673,0,448,0z M458.667,408.779L256,489.845L53.333,408.779V32c0-5.891,4.776-10.667,10.667-10.667h384
			c5.891,0,10.667,4.776,10.667,10.667V408.779z"/>
	</g>
</g>
<g>
	<g>
		<rect x="10.667" y="53.333" width="490.667" height="21.333"/>
	</g>
</g>
<g>
	<g>
		<path d="M416,96v280.608l-160,60l-160-60V96H74.667v288c-0.004,4.447,2.75,8.43,6.912,9.995l170.667,64
			c1.202,0.444,2.473,0.672,3.755,0.672h0c1.281,0,2.553-0.228,3.755-0.672l170.667-64c4.162-1.565,6.916-5.548,6.912-9.995V96H416z
			"/>
	</g>
</g>
<g>
	<g>
		<rect x="213.333" y="213.333" width="21.333" height="64"/>
	</g>
</g>
<g>
	<g>
		<path d="M320,128H192c-5.891,0-10.667,4.776-10.667,10.667v42.667c0,5.891,4.776,10.667,10.667,10.667h128
			c5.891,0,10.667-4.776,10.667-10.667v-42.667C330.667,132.776,325.891,128,320,128z M309.333,170.667H202.667v-21.333h106.667
			V170.667z"/>
	</g>
</g>
<g>
	<g>
		<path d="M309.333,266.667H202.667c-5.891,0-10.667,4.776-10.667,10.667V320c0,5.891,4.776,10.667,10.667,10.667h106.667
			c5.891,0,10.667-4.776,10.667-10.667v-42.667C320,271.442,315.224,266.667,309.333,266.667z M298.667,309.333h-85.333V288h85.333
			V309.333z"/>
	</g>
</g>
<g>
	<g>
		<rect x="277.333" y="213.333" width="21.333" height="64"/>
	</g>
</g>
<g>
	<g>
		<path d="M288,96h-64c-5.891,0-10.667,4.776-10.667,10.667v32h21.333v-21.333h42.667v21.333h21.333v-32
			C298.667,100.776,293.891,96,288,96z"/>
	</g>
</g>
<g>
	<g>
		<path d="M330.667,309.333H181.333c-5.891,0-10.667,4.776-10.667,10.667v32c0,5.891,4.776,10.667,10.667,10.667h149.333
			c5.891,0,10.667-4.776,10.667-10.667v-32C341.333,314.109,336.558,309.333,330.667,309.333z M320,341.333H192v-10.667h128V341.333
			z"/>
	</g>
</g>
<g>
	<g>
		<rect x="149.333" y="341.333" width="32" height="21.333"/>
	</g>
</g>
<g>
	<g>
		<rect x="330.667" y="341.333" width="32" height="21.333"/>
	</g>
</g>
<g>
	<g>
		<rect x="245.333" y="384" width="21.333" height="64"/>
	</g>
</g>
<g>
	<g>
		<rect x="117.333" y="96" width="21.333" height="21.333"/>
	</g>
</g>
<g>
	<g>
		<rect x="373.333" y="96" width="21.333" height="21.333"/>
	</g>
</g>
<g>
</g>
<g>
</g>
<g>
</g>
<g>
</g>
<g>
</g>
<g>
</g>
<g>
</g>
<g>
</g>
<g>
</g>
<g>
</g>
<g>
</g>
<g>
</g>
<g>
</g>
<g>
</g>
<g>
</g>
</svg>
